<svg width="100" height="100" viewBox="0 0 100 100" fill="none" xmlns="http://www.w3.org/2000/svg">
<path d="M15.3604 23.8395C15.1938 19.0249 18.9458 14.5833 24.0188 14.5833H75.9896C81.0625 14.5833 84.8146 19.0249 84.6458 23.8395C84.4854 28.4666 84.6937 34.4583 86.2021 39.3458C87.7146 44.2478 90.2667 47.3457 94.4458 47.7437V52.2583C90.2667 52.6562 87.7167 55.7541 86.2021 60.6562C84.6937 65.5416 84.4854 71.5353 84.6458 76.1624C84.8125 80.9749 81.0604 85.4166 75.9896 85.4166H24.0188C18.9479 85.4166 15.1938 80.9749 15.3625 76.1603C15.5229 71.5332 15.3146 65.5416 13.8063 60.6541C12.2938 55.752 9.73542 52.6541 5.55625 52.2562V47.7416C9.73542 47.3437 12.2917 44.2458 13.8063 39.3437C15.3125 34.4583 15.5229 28.4666 15.3604 23.8395Z" fill="#B988E3"/>
<path d="M56.4021 48.8834V48.8251C60.2625 48.1584 63.275 44.5397 63.275 40.5543C63.275 37.7376 62.1917 35.3501 60.1417 33.6543C58.0979 31.9626 55.2312 31.0688 51.8479 31.0688H36.3542V68.9168H51.9271C55.9729 68.9168 59.3333 67.9293 61.6417 66.0584C63.9521 64.1855 65.175 61.4605 65.175 58.1772C65.1729 53.2168 61.6521 49.4918 56.4021 48.8834ZM49.1458 47.1001H42.5188V36.0209H50.4021C54.7271 36.0209 57.1083 37.9188 57.1083 41.3647C57.1104 45.0626 54.2812 47.1001 49.1458 47.1001ZM42.5188 51.7376H50.35C56.0083 51.7376 58.875 53.7813 58.875 57.8126C58.875 61.8376 56.0479 63.9647 50.6979 63.9647H42.5188V51.7376Z" fill="#160925"/>
</svg>
