<svg width="80" height="80" viewBox="0 0 80 80" fill="none" xmlns="http://www.w3.org/2000/svg">
<path d="M28.5677 7.87427C22.0946 7.87427 16.8 13.1689 16.8 19.642C16.8 23.6789 18.9864 27.0815 22.1064 29.2033C18.9864 31.3251 16.8 34.7278 16.8 38.7646C16.8 42.8074 18.8666 46.3891 21.9943 48.5098C18.8574 50.7867 16.8 54.4706 16.8 58.6227C16.8 65.5019 22.424 71.1259 29.3032 71.1259C36.1824 71.1259 41.8064 65.5019 41.8064 58.6227V48.3259V31.4098H50.6322C57.1054 31.4098 62.4 26.1151 62.4 19.642C62.4 13.1689 57.1054 7.87427 50.6322 7.87427H39.6H28.5677ZM28.5677 12.2872H37.3935V26.9969H28.5677C24.4793 26.9969 21.2129 23.7304 21.2129 19.642C21.2129 15.5536 24.4793 12.2872 28.5677 12.2872ZM41.8064 12.2872H50.6322C54.7207 12.2872 57.9871 15.5536 57.9871 19.642C57.9871 23.7304 54.7207 26.9969 50.6322 26.9969H41.8064V12.2872ZM28.5677 31.4098H37.3935V46.1194H29.3032H28.5677C24.4793 46.1194 21.2129 42.853 21.2129 38.7646C21.2129 34.6762 24.4793 31.4098 28.5677 31.4098ZM51.3677 31.4098C48.8319 31.4098 46.4 32.4171 44.6069 34.2102C42.8138 36.0033 41.8064 38.4352 41.8064 40.971C41.8064 43.5069 42.8138 45.9388 44.6069 47.7319C46.4 49.525 48.8319 50.5323 51.3677 50.5323C53.9035 50.5323 56.3355 49.525 58.1286 47.7319C59.9217 45.9388 60.929 43.5069 60.929 40.971C60.929 38.4352 59.9217 36.0033 58.1286 34.2102C56.3355 32.4171 53.9035 31.4098 51.3677 31.4098ZM29.3032 50.5323H37.3935V58.6227C37.3935 63.117 33.7975 66.713 29.3032 66.713C24.8089 66.713 21.2129 63.117 21.2129 58.6227C21.2129 54.1283 24.8089 50.5323 29.3032 50.5323Z" fill="#B988E3"/>
</svg>
