<svg width="100" height="100" viewBox="0 0 100 100" fill="none" xmlns="http://www.w3.org/2000/svg">
<g clip-path="url(#clip0_23_151)">
<path d="M5.21874 29.2578C4.38824 29.3275 3.66321 29.9953 4.69921 31.1133C6.68921 32.2373 2.73662 33.0644 3.89062 33.8164C4.25862 34.6084 3.86115 35.4908 2.78515 35.6328C1.20915 35.7688 1.35852 37.9209 2.89452 36.7929C4.60852 36.2489 3.19081 37.008 2.38281 37.164C0.568806 37.692 -0.667288 39.5041 0.386712 41.1601C1.39471 43.4401 1.66331 45.9834 2.44531 48.3554C3.73931 52.0034 5.62993 55.4746 8.08593 58.4726C9.25193 60.1726 10.9566 61.3806 12.5586 62.6406C14.1346 63.6626 15.8896 64.685 17.6836 65.207C20.8696 66.373 24.2887 66.4821 27.6367 66.7461C29.6767 66.7421 31.7243 66.5983 33.7383 66.2383C35.5503 66.4343 36.8542 64.8851 38.4922 65.7031C39.4842 64.8231 40.9299 65.2064 41.9219 64.5664C42.6559 62.0704 39.4011 64.0715 38.3711 62.8515C37.2511 64.1675 36.3111 62.7072 34.9531 63.1172C32.6411 63.2332 35.1283 62.0814 35.0703 61.0234C33.8443 60.0834 32.4598 62.314 31.6758 62.914C29.7398 62.564 27.8229 62.0138 26.0469 61.1758C24.0229 60.1218 22.0363 58.8678 20.5703 57.0898C19.0363 55.2738 17.3406 53.4374 16.6406 51.1054C15.1606 47.2554 15.2569 43.0869 14.8789 39.0429C15.0189 36.3049 17.9101 39.3376 19.1601 38.3476C18.7321 36.9276 16.4514 36.4781 15.1914 35.9101C13.9754 35.8261 13.5323 34.7364 12.2383 34.6484C12.3003 33.1284 9.86065 33.9648 8.97265 32.8828C9.84665 30.6268 6.07709 32.9364 6.37109 30.9844C6.98509 29.7154 6.04924 29.188 5.21874 29.2578ZM5.23046 29.4492C5.42759 29.4 5.65431 29.4396 5.88281 29.6211C6.96681 31.0811 3.88902 29.4536 4.95702 30.8476C4.30752 30.5431 4.63909 29.5968 5.23046 29.4492ZM83.8281 30.1719C83.6941 30.1719 83.3433 30.3545 82.7773 30.7265C82.0773 31.1785 81.3384 31.5349 80.5664 31.7929C80.0824 31.9589 79.8437 32.1903 79.8437 32.4883C79.8437 32.6943 80.0116 32.8547 80.3516 32.9687C81.0736 33.2067 81.5474 33.535 81.7734 33.957C81.9394 34.287 82.0234 34.8727 82.0234 35.7187V49.2304C82.0234 50.4144 81.7379 51.0786 81.1719 51.2226C80.5419 51.3866 80.2266 51.6292 80.2266 51.9492C80.2266 52.0832 80.2378 52.1897 80.2578 52.2617C80.3078 52.4677 80.6437 52.5442 81.2617 52.4922C83.7157 52.2962 85.4583 52.2478 86.4883 52.3398C86.8183 52.3718 87.0196 52.3568 87.0976 52.3008C87.1757 52.2448 87.2148 52.0974 87.2148 51.8594C87.2148 51.5594 86.9723 51.3784 86.4883 51.3164C85.7043 51.2344 85.2043 51.1205 84.9883 50.9765C84.6803 50.7705 84.5122 50.3397 84.4922 49.6797C84.4722 49.0197 84.4648 48.514 84.4648 48.164C84.4648 47.67 84.7074 47.2875 85.1914 47.0195C85.6234 46.7095 85.9256 46.5547 86.1016 46.5547C86.2456 46.5547 86.365 46.6407 86.457 46.8047C87.591 48.7227 88.9736 50.5566 90.6016 52.3086C90.8476 52.5666 91.2618 52.6374 91.8398 52.5234C93.0058 52.4314 93.946 52.3811 94.668 52.3711C95.152 52.3511 95.3945 52.1569 95.3945 51.7969C95.3945 51.5089 95.3366 51.3316 95.2226 51.2656C95.1087 51.1996 94.8177 51.164 94.3437 51.164C93.7057 51.164 93.0172 50.8506 92.2851 50.2226C91.1412 49.2246 89.9247 47.7431 88.6367 45.7851C88.2867 45.2391 88.1133 44.894 88.1133 44.75C88.1133 44.658 88.1524 44.5815 88.2344 44.5195C89.3464 43.4075 90.395 42.6276 91.375 42.1836C92.077 41.8536 92.8232 41.6706 93.6172 41.6406C94.1232 41.6106 94.375 41.4203 94.375 41.0703C94.375 40.6983 94.2145 40.5061 93.8945 40.4961C92.9165 40.4961 91.9314 40.4904 90.9414 40.4804C89.5194 40.4704 88.4373 40.4165 87.6953 40.3125C87.3653 40.2605 87.1823 40.4173 87.1523 40.7773C87.1323 41.1373 87.3041 41.3369 87.6641 41.3789C88.4981 41.4929 88.9141 41.6868 88.9141 41.9648C88.9141 42.1188 88.791 42.3279 88.543 42.5859C87.295 43.6679 86.2466 44.5409 85.3906 45.2109C85.0706 45.4789 84.8337 45.6133 84.6797 45.6133C84.5357 45.6133 84.4609 45.4789 84.4609 45.2109L84.4336 35.5351C84.4336 34.2671 84.4392 33.2559 84.4492 32.5039C84.4592 31.4119 84.4648 30.9006 84.4648 30.9726C84.4648 30.4366 84.2501 30.1719 83.8281 30.1719ZM48.5351 30.2812C48.3711 30.2812 47.9774 30.4639 47.3594 30.8359C46.6074 31.3099 45.8797 31.6607 45.1797 31.8867C44.7157 32.0407 44.4844 32.2759 44.4844 32.5859C44.4844 32.7919 44.6448 32.9485 44.9648 33.0625C45.5728 33.2785 45.9963 33.5845 46.2383 33.9765C46.4803 34.3685 46.6055 34.9824 46.6055 35.8164V49.8047C46.6055 50.6487 46.3237 51.1581 45.7617 51.3281C45.1997 51.4981 44.9219 51.7051 44.9219 51.9531C44.9219 52.2311 44.9684 52.4028 45.0664 52.4648C45.1644 52.5248 45.4256 52.5342 45.8476 52.4922C47.9516 52.3162 49.7108 52.2996 51.1328 52.4336C51.5968 52.4836 51.8281 52.3026 51.8281 51.8906C51.8281 51.5926 51.5988 51.4172 51.1328 51.3672C50.3808 51.2752 49.8491 51.0848 49.5391 50.8008C49.2291 50.5168 49.0742 50.0616 49.0742 49.4336L49.0156 35.6289C49.0036 34.6409 49.013 33.6333 49.043 32.6133C49.085 31.5413 49.1055 31.0244 49.1055 31.0664C49.1055 30.5404 48.9171 30.2812 48.5351 30.2812ZM27.9766 31.9062C27.8626 31.9262 27.7825 32.0344 27.7305 32.2304C27.6285 32.5504 27.7833 32.8023 28.1953 32.9883C28.8533 33.2883 29.3049 33.6223 29.5469 33.9883C29.7889 34.3543 29.9101 34.8786 29.9101 35.5586V48.7929C29.9101 50.4529 29.4045 51.3391 28.3945 51.4531C27.9525 51.4951 27.7305 51.646 27.7305 51.914C27.7305 52.338 27.9505 52.519 28.3945 52.457C29.9805 52.241 31.9955 52.2337 34.4375 52.4297C35.2815 52.5017 35.7349 52.3673 35.7969 52.0273C35.8589 51.6373 35.6368 51.4153 35.1328 51.3633C34.1448 51.2393 33.5011 51.0993 33.2031 50.9453C32.8211 50.7593 32.6289 50.4066 32.6289 49.8906V42.9375C32.6289 42.8055 32.7202 42.7344 32.9062 42.7344C34.5442 42.7344 35.731 42.7792 36.457 42.8672C37.183 42.9552 37.6812 43.6456 37.9492 44.9336C38.0232 45.2736 38.2003 45.4245 38.4883 45.3945C38.8383 45.3745 39.01 45.2328 39 44.9648C38.896 42.7188 38.9893 40.8942 39.2773 39.4922C39.3293 39.2442 39.1781 39.0837 38.8281 39.0117C38.4161 38.9197 38.1775 39.0802 38.1055 39.4922C37.9915 40.2462 37.8758 40.7106 37.7578 40.8906C37.6398 41.0706 37.4064 41.1806 37.0664 41.2226C35.3244 41.3366 33.9961 41.4001 33.0781 41.4101C32.7801 41.4201 32.6328 41.3083 32.6328 41.0703V34.0664C32.6328 33.8284 32.6811 33.6735 32.7851 33.6015C32.9511 33.4875 33.3038 33.4336 33.8398 33.4336C36.1798 33.4336 37.6386 33.4783 38.2266 33.5703C38.7726 33.6423 39.213 33.857 39.543 34.207C39.823 34.505 40.1158 35.0292 40.4258 35.7812C40.5378 36.0592 40.7393 36.1992 41.0273 36.1992C41.3153 36.1992 41.457 36.0387 41.457 35.7187C41.497 34.0907 41.6052 32.9322 41.7812 32.2422C41.7912 32.2002 41.7968 32.1614 41.8008 32.1094C41.8008 31.9554 41.4556 31.8955 40.7656 31.9375C38.6936 32.0615 36.2346 32.125 33.3906 32.125C30.9786 32.125 29.4469 32.0727 28.7969 31.9687C28.3529 31.8967 28.0806 31.8762 27.9766 31.9062ZM7.58202 32.2734C7.85802 32.3319 7.95331 32.4966 7.19531 32.5976L6.89062 32.582C6.85062 32.263 7.30602 32.2149 7.58202 32.2734ZM7.27734 33.3398C7.82534 33.5798 8.94881 33.6909 9.13281 34.2929C8.01081 33.7089 9.35606 34.9966 8.41406 34.9726C7.90606 34.9786 6.96534 33.8878 7.27734 33.3398ZM6.99609 34.2461C8.26609 35.2121 6.28837 34.2455 5.48437 34.8515C4.21837 34.9795 6.87209 34.1381 6.99609 34.2461ZM10.3516 34.8242C10.5136 34.8689 10.5136 35.0222 10.2461 35.3437C11.2301 36.5197 10.4669 36.123 9.79687 35.289C10.3849 35.695 9.93134 37.4482 9.02734 36.2422C8.38734 35.0502 7.98215 35.8559 8.66015 36.6719C7.99415 35.4179 6.06624 35.9536 4.65624 36.4336C3.74624 36.3336 7.02099 35.6561 7.37499 35.4961C7.92249 35.5066 9.86537 34.6899 10.3516 34.8242ZM14.2969 36.1523C14.6991 36.1471 15.0958 36.1623 15.4883 36.1953C16.1183 36.9293 15.0114 38.1719 13.8594 38.2539C12.4594 38.7779 11.0344 38.9061 9.73437 39.0781C8.06637 38.8681 6.86862 40.3686 5.14062 40.5586C5.60062 39.7066 4.76271 40.2646 3.88671 40.2226C4.33271 41.9426 0.800712 39.7655 2.88671 39.3515C1.32271 38.7955 1.30084 40.439 1.46484 41.375H1.35937C-0.0726318 39.531 1.52002 38.7789 3.33202 38.5429C2.98802 39.3929 3.82681 39.6663 4.63281 39.8203C5.93881 39.4603 3.77371 39.2287 4.76171 38.8867C5.30371 38.7867 3.03377 38.3438 4.92577 38.0898C6.86577 37.7638 8.61115 37.0015 10.5351 36.6015C11.8371 36.3435 13.0902 36.1679 14.2969 36.1523ZM13.8672 36.5898C13.6959 36.5366 13.2977 36.6437 13.0937 37.1797C13.2417 37.5177 13.3151 37.0808 13.2851 36.9648C13.9841 36.8578 14.0384 36.6431 13.8672 36.5898ZM9.83202 37.3086C9.27227 37.2828 8.35524 37.4039 8.03124 37.7929C8.44324 37.9809 8.89627 37.2727 9.48827 37.7187C10.5933 37.5087 10.3918 37.3343 9.83202 37.3086ZM17.8242 37.4101C18.104 37.3645 18.9703 37.6879 18.6641 38.2304C18.4541 38.2904 18.4899 37.9739 18.3359 37.9219C17.7014 37.5986 17.6563 37.4375 17.8242 37.4101ZM6.97265 38.1601C6.82637 38.16 6.70931 38.2262 6.69531 38.4062L6.97656 38.664C8.10006 38.7555 7.41149 38.1606 6.97265 38.1601ZM6.34374 38.6758C6.13518 38.6453 5.94193 38.7608 5.83593 39.1523C6.03193 39.1043 6.34324 39.2174 6.53124 39.3594C7.71624 40.1694 6.96943 38.7672 6.34374 38.6758ZM13.9648 38.8672C15.0049 38.6636 14.7014 41.3558 14.3672 42.1836C14.9972 41.7536 14.8759 44.1819 14.6719 45.0859C15.0159 44.6239 15.1574 45.8335 14.7734 46.6875C14.8054 46.5475 15.6056 46.4255 15.0156 47.4375C14.5656 46.4455 14.3701 49.4554 14.6601 48.1054C15.4541 46.8294 15.2463 48.0375 15.4883 48.6015C15.6443 49.7715 16.1662 50.8507 16.3242 51.8867C17.0582 52.6267 16.0116 52.125 16.0156 53.125C16.2536 52.835 17.2247 53.5323 17.2187 54.5703C17.2987 52.9243 17.3933 54.1853 18.1953 54.6133C18.8653 55.6933 19.3672 56.7037 20.3672 57.5937C21.1472 58.4957 20.3182 57.862 20.6562 58.414C21.4842 59.882 23.4025 60.7332 25.0625 61.1172C25.7905 62.0652 26.8833 63.0081 28.3633 62.5781C27.1113 63.3501 31.8894 63.5601 30.2734 63.9961C29.4334 64.4521 28.6364 63.7022 27.8164 63.7422C26.6764 63.3502 24.8743 62.1488 23.6523 62.9648C21.9623 64.0228 24.5184 61.7851 23.1484 62.7851C21.7604 64.4511 22.2056 61.7486 20.8516 62.5586C20.7736 62.3006 19.648 62.2294 20.5 61.7734C19.736 61.7254 20.2123 61.6764 20.4883 61.0664C20.1603 60.9984 18.3371 61.0628 17.6211 60.4648C16.7771 59.3668 17.7684 59.8126 18.6484 59.9726C17.2364 60.2206 19.1341 61.032 20.0781 60.582C19.6541 60.402 19.1689 59.4856 18.0469 58.6836C16.4789 57.7396 15.1885 57.2891 13.5625 56.5351C11.8025 55.4911 13.9564 56.1648 14.5664 56.7148C16.3224 57.4888 15.6313 55.6285 14.6133 55.1445C13.4973 55.1905 13.2104 53.9084 12.3164 53.9804C13.7284 54.2064 14.7087 53.6153 13.1367 52.1953C11.6427 50.4513 13.7606 53.5112 12.8906 53.1172C12.4946 52.5952 12.7913 51.8442 11.5273 51.5742C11.5133 52.0562 11.3541 52.803 11.0781 51.789C10.7261 51.849 10.3231 52.2354 10.0351 51.1914C10.3071 50.0054 8.86071 49.7345 8.63671 48.9765C9.88671 49.7745 10.4524 49.1454 9.5664 48.2734C8.9564 47.2074 8.87124 48.0434 8.53124 48.1914C7.30524 49.4434 8.41899 46.0316 7.87499 47.0156C7.32699 46.9996 7.64234 47.6187 7.65234 48.3867C5.86034 47.9427 8.08746 49.3297 8.60546 50.0937C7.78746 49.2377 7.92618 50.7354 7.24218 50.0234C7.01018 49.3934 6.97784 48.3986 5.83984 48.2226C7.13384 47.7746 5.07018 46.8644 5.24218 46.8164C5.98218 46.1424 6.07674 45.216 6.96874 46.664C5.83874 46.572 6.93684 48.5293 7.21484 47.9453C7.17084 46.9433 7.67674 45.8917 5.96874 45.4297C5.46674 46.1057 4.60146 44.1053 5.60546 44.5273C5.47346 43.1993 7.16268 43.9822 7.05468 43.4062C7.92668 43.0242 5.99906 41.7909 7.03906 41.2969C7.83506 41.7809 9.89971 40.5353 8.51171 40.3633C9.37971 40.3553 10.076 40.7354 10.168 39.8554C10.87 40.0074 12.769 40.6121 11.043 39.6601C11.595 39.3861 12.7616 39.1545 13.4336 39.1445C13.6408 38.9833 13.8163 38.8962 13.9648 38.8672ZM73.2422 39.9844C71.9142 39.9844 70.8526 40.2809 70.0586 40.8789C69.2026 41.4989 68.7773 42.3625 68.7773 43.4765C68.7773 44.3825 69.0517 45.1046 69.5976 45.6406C70.1016 46.1446 71.1054 46.7323 72.6094 47.4023C73.6494 47.8563 74.3509 48.2537 74.7109 48.5937C75.0409 48.8937 75.207 49.263 75.207 49.707C75.207 50.717 74.4813 51.2226 73.0273 51.2226C71.3053 51.2226 70.0572 50.5492 69.2851 49.1992C69.1091 48.9012 68.8964 48.7669 68.6484 48.7969C68.4004 48.8169 68.2773 49.0985 68.2773 49.6445C68.2773 50.9125 68.3203 51.6216 68.4023 51.7656C68.5363 51.9196 69.0215 52.0874 69.8555 52.2734C70.8235 52.4794 71.7937 52.5859 72.7617 52.5859C74.2157 52.5859 75.3631 52.2612 76.2031 51.6172C77.0431 50.9732 77.4609 50.1076 77.4609 49.0156C77.4609 48.0276 77.1531 47.2385 76.5391 46.6445C76.0651 46.1925 75.1676 45.6793 73.8476 45.1133C72.5896 44.5673 71.7931 44.1642 71.4531 43.9062C71.0711 43.6062 70.8789 43.2091 70.8789 42.7031C70.8789 41.7971 71.5841 41.3437 72.9961 41.3437C74.2441 41.3437 75.2758 42.0059 76.0898 43.3359C76.2038 43.5219 76.4295 43.5798 76.7695 43.5078C77.0875 43.4258 77.2331 43.3176 77.2031 43.1836C76.9451 42.0916 76.7734 41.2577 76.6914 40.6797C76.6594 40.4837 76.2732 40.3176 75.5312 40.1836C74.8412 40.0516 74.0762 39.9844 73.2422 39.9844ZM60.375 40.0469C59.159 40.0469 57.8942 40.3959 56.5742 41.0859C55.3162 41.7459 54.6875 42.3224 54.6875 42.8164C54.6875 43.6084 55.111 43.9648 55.957 43.8828C56.699 43.8208 57.2681 43.3916 57.6641 42.5976C58.0601 41.8036 58.4818 41.4062 58.9258 41.4062C60.4818 41.4062 61.2261 42.2553 61.1641 43.9453L61.1367 44.9336C61.1267 45.3656 60.7703 45.6511 60.0703 45.7851C55.9883 46.5591 53.9492 47.8352 53.9492 49.6172C53.9492 50.5552 54.257 51.2977 54.875 51.8437C55.441 52.3377 56.1462 52.5859 56.9922 52.5859C57.8882 52.5859 58.782 52.3751 59.668 51.9531C60.554 51.5311 61.0447 51.3164 61.1367 51.3164C61.2607 51.3164 61.4751 51.5142 61.7851 51.9062C62.0931 52.2982 62.4496 52.4922 62.8516 52.4922C63.3256 52.4922 63.9581 52.2739 64.7461 51.8359C65.5341 51.3979 65.9297 51.0714 65.9297 50.8554C65.9297 50.4534 65.7786 50.252 65.4766 50.25C65.4246 50.25 65.2419 50.2761 64.9219 50.3281C64.6019 50.3801 64.3874 50.4062 64.2734 50.4062C63.6974 50.4062 63.4119 50.0723 63.4219 49.4023L63.4844 43.0312C63.5044 41.0412 62.467 40.0469 60.375 40.0469ZM13.8516 40.5195C13.5886 40.5949 13.1774 41.9927 13.4609 42.4922C14.0849 43.4862 14.7093 40.0491 14.1953 41.2031C13.9193 42.6731 13.6371 42.0588 14.0351 40.9648C14.0111 40.6133 13.9392 40.4944 13.8516 40.5195ZM5.07031 41.8203C5.16971 41.8158 5.34427 41.8238 5.61327 41.8515C7.00127 41.8035 6.55562 42.6218 5.76562 42.6758C5.74762 42.7278 5.04193 42.5065 5.33593 42.3125C7.23993 42.554 4.37446 41.8515 5.07031 41.8203ZM8.5664 42.3047C8.68215 42.5642 8.87846 43.0525 8.73046 43.2695C9.12046 43.6555 10.4528 44.3424 9.38281 43.3984C10.0648 43.2624 9.29271 43.0466 8.88671 42.7226C8.41571 42.0156 8.45065 42.0452 8.5664 42.3047ZM4.03906 42.3398C4.35406 42.3276 4.6774 42.4893 4.0664 42.8633C3.4174 42.5383 3.72406 42.3521 4.03906 42.3398ZM12.918 43.25C12.8977 43.2212 12.8871 43.2467 12.9101 43.3867C13.1456 43.9147 12.9786 43.3362 12.918 43.25ZM8.18749 43.7773C8.37149 44.0433 8.86956 43.9256 9.10156 44.1836C11.1976 45.0516 8.91349 43.6213 8.18749 43.7773ZM7.85937 43.9414C7.75625 43.9648 7.77477 44.1018 8.0039 44.4179C8.1479 44.7439 8.49515 44.7716 8.78515 44.8476C11.0341 45.8844 8.3062 43.8398 7.85937 43.9414ZM3.98827 44.1172C4.33002 44.1729 4.74106 44.3571 4.28906 44.5351L4.10546 44.4648C3.37446 44.1318 3.64652 44.0614 3.98827 44.1172ZM7.16796 44.3906C7.06556 44.3959 7.1534 44.5496 7.6289 44.9726L7.93749 45.289C9.49749 45.7165 7.47518 44.3746 7.16796 44.3906ZM6.95702 44.8086C6.87649 44.806 7.60012 45.5799 7.26562 45.5664C6.10762 44.7204 6.58037 45.3187 7.23437 45.9687C7.94437 47.0227 8.53099 45.3409 7.37499 45.1289C7.09999 44.8979 6.98387 44.8094 6.95702 44.8086ZM11.8711 45.9101C11.8564 45.9584 11.8538 46.1215 11.8828 46.4765C12.0763 46.652 11.9152 45.7653 11.8711 45.9101ZM12.8945 46C12.6451 46.0015 12.4577 47.7701 13.0742 48.1406C13.3282 48.8706 13.5994 48.5702 13.6914 47.7422C13.0954 47.7542 13.9367 46.4451 13.1367 46.7031C13.0667 46.1936 12.9777 45.9995 12.8945 46ZM14.6172 46.039C14.5724 45.9398 14.4648 46.1568 14.4258 46.8828V47.0898C14.6418 46.5528 14.6619 46.1383 14.6172 46.039ZM2.93749 46.0976C3.09556 46.0596 3.99649 47.8842 3.87499 48.3867C3.32299 48.1947 3.34974 47.331 3.09374 46.875C2.91624 46.3305 2.88481 46.1103 2.93749 46.0976ZM9.51952 46.1875C9.37352 46.5935 9.82946 47.9249 10.1055 48.3789C10.8095 49.4609 10.4936 47.7872 11.2656 48.8672C10.8416 47.9192 11.465 48.4352 11.375 48.0312C11.179 47.6232 9.28052 45.4637 10.1445 47.0937C10.9265 49.0377 9.65352 46.8495 9.51952 46.1875ZM2.5664 46.5039C2.77775 46.6401 3.34421 47.5617 3.44921 48.0742C4.33921 49.1462 3.98815 49.7368 4.91015 51.0508C3.72415 50.3028 3.50009 48.5173 2.74609 47.3633C2.43784 46.623 2.43959 46.4221 2.5664 46.5039ZM60.7422 46.7461C60.8439 46.7538 60.9243 46.7793 60.9883 46.8203C61.1183 46.9023 61.178 47.0701 61.168 47.3281L61.1367 49.8672C61.1367 50.1872 60.8177 50.4615 60.1797 50.6875C59.6337 50.8835 59.1019 50.9804 58.5859 50.9804C57.2979 50.9804 56.6523 50.3891 56.6523 49.2031C56.6523 48.0271 57.8949 47.2174 60.3789 46.7734C60.5179 46.7474 60.6404 46.7383 60.7422 46.7461ZM9.11327 49.8633C9.59037 50.013 9.30202 51.5734 10.0195 51.7851C11.6215 53.8751 8.9099 51.8465 8.0039 51.6445C8.1199 51.6385 7.19965 51.3829 7.59765 51.2929C7.30765 50.9949 6.65862 49.9127 8.14062 50.6367C9.31862 51.2267 9.41746 50.8286 8.85546 49.8906C8.95996 49.8464 9.04512 49.8419 9.11327 49.8633ZM3.70702 50.1679C3.74668 49.9684 4.56243 51.2806 4.71093 51.8281C5.15893 53.2541 6.56112 54.0755 6.70312 55.0195C8.25712 55.9155 7.45962 57.377 8.76562 57.789C9.34562 57.495 9.40271 59.5491 10.6367 59.1211C9.95071 59.4431 10.9255 59.8239 11.2695 60.4219C12.0475 60.3159 13.7527 62.1358 12.0547 61.5078C11.3387 61.3558 10.8497 60.611 10.3437 60.125C8.84174 59.171 7.86696 57.5749 7.04296 56.0469C5.98096 54.4409 4.70256 52.835 3.97656 50.957C3.76356 50.4695 3.69381 50.2344 3.70702 50.1679ZM15.6406 51.375C15.5614 51.4155 15.5573 51.6529 15.7891 52.1719L15.9258 52.3945C16.1145 51.7808 15.7726 51.3074 15.6406 51.375ZM10.2383 53.2109C10.6803 53.3072 11.3453 53.5446 11.6133 53.5976C11.6873 53.9156 10.0983 53.8663 11.4883 54.4883C10.6783 54.4663 10.4338 54.4053 11.5898 55.1133C11.1358 55.4773 12.5051 55.7665 12.0351 56.3125C13.4291 57.4005 11.7835 56.5885 11.1875 56.1445C10.8355 55.9005 9.40099 55.4156 9.62499 55.0976C11.317 55.9856 10.0546 55.0587 9.30859 54.4687C10.6726 54.8027 8.21562 53.4585 9.51562 53.8125C9.90162 53.9065 8.93112 53.016 10.2031 53.664C9.57712 53.158 9.79627 53.1147 10.2383 53.2109ZM18.7226 56.6211C18.5484 56.5596 18.7209 57.2341 19.1094 57.6406C19.9374 58.6266 19.3075 57.0808 19.0195 56.9648C18.8795 56.7443 18.7807 56.6416 18.7226 56.6211ZM11.418 57.5898C11.879 57.5948 12.6326 57.8028 13.0976 58.0508C15.1376 58.5048 12.6636 59.0518 11.8476 58.4258L11.5039 58.3515C10.7909 57.7855 10.957 57.5848 11.418 57.5898ZM13.8555 57.8047C14.0251 57.7685 14.7962 58.0856 15.125 58.3906C16.103 58.5226 16.1073 58.9694 15.0273 58.6914C14.8353 58.5734 14.5258 58.58 14.4258 58.332C13.8693 57.9765 13.7537 57.8264 13.8555 57.8047ZM15.1562 57.8203C15.4647 57.815 15.9699 57.9027 16.1289 58.1367C18.2709 58.4807 15.9934 58.6304 15.3594 58.0664C14.7364 57.9234 14.8477 57.8255 15.1562 57.8203ZM15.1562 59.0273C15.3878 58.9761 16.9 59.6004 15.8125 59.4609L15.4961 59.3594C15.1446 59.1389 15.0791 59.0444 15.1562 59.0273ZM22.3633 59.3906C22.4308 59.4143 22.4994 59.4761 22.5469 59.5976C21.9844 59.5886 22.1608 59.3194 22.3633 59.3906ZM15.1641 59.9765C15.6035 60.019 17.2939 60.9425 15.7969 60.5195L15.5664 60.4297L15.3047 60.3086C15.0082 60.0451 15.0176 59.9624 15.1641 59.9765ZM18.8008 62.4101C19.0038 62.3778 20.6714 62.5291 19.2539 62.5156C18.8274 62.4506 18.7331 62.4209 18.8008 62.4101ZM14.3672 62.6562C14.4872 62.6831 14.6775 62.7417 14.957 62.8437C16.747 63.9497 18.8106 64.5347 20.7226 65.3867C22.4026 65.6067 24.1741 66.0513 25.8281 65.6953C27.2081 66.3853 28.6394 65.5166 30.0234 66.1406C26.9654 66.7366 23.8194 66.0841 20.7734 65.6601C18.8534 65.4181 17.1387 64.6213 15.3867 63.8633C15.1327 63.7433 14.8924 63.5931 14.6484 63.4531C13.4444 62.7851 13.5936 62.6487 14.7656 63.3047C15.1796 63.6347 18.1167 64.8369 16.7187 64.0429C16.1902 63.9117 13.5267 62.4684 14.3672 62.6562ZM25.5 63.1875C25.637 63.2755 25.6417 63.5628 25.6367 63.9258C24.7167 64.9418 25.2653 63.5105 24.6953 64.0625C24.1693 64.4825 24.2941 63.8123 24.5781 63.6523C25.0931 63.2113 25.363 63.0995 25.5 63.1875ZM33.168 63.5117C33.9892 63.5825 34.9286 63.7721 35.4726 63.7851C35.1426 64.4791 33.103 63.8414 32.207 64.0234L31.8203 64L31.582 63.9609C31.645 63.4889 32.3467 63.4409 33.168 63.5117ZM40.2305 63.7344C42.3545 63.7324 40.3705 64.043 39.3945 64.039C38.2865 63.779 39.8965 63.7864 40.2305 63.7344ZM27.4375 64.0117C27.6075 63.9925 27.6656 64.1265 27.1836 64.4375L27.0078 64.4922C26.9838 64.2002 27.2675 64.0309 27.4375 64.0117ZM26.6289 64.1367C26.6601 64.185 26.5903 64.3234 26.3203 64.6094C25.5343 64.6604 26.5351 63.9918 26.6289 64.1367ZM18.9648 64.3554C19.1566 64.3073 21.2228 64.9031 21.4883 64.8476C23.5943 65.6296 20.2311 65.102 19.5351 64.664C19.0466 64.4575 18.9009 64.3715 18.9648 64.3554ZM29.1406 64.457C29.1452 64.5095 29.0356 64.6325 28.7266 64.8554L28.4687 65.0234C28.1027 64.7699 29.1269 64.2996 29.1406 64.457Z" fill="#B988E3"/>
</g>
<defs>
<clipPath id="clip0_23_151">
<rect width="100" height="100" fill="white"/>
</clipPath>
</defs>
</svg>
