<svg width="100" height="100" viewBox="0 0 100 100" fill="none" xmlns="http://www.w3.org/2000/svg">
<g clip-path="url(#clip0_90_2)">
<path d="M50 20.0083C36.6667 20.0083 28.3333 26.6729 25 40.0021C30 33.3375 35.8333 30.8396 42.5 32.5041C46.3042 33.4541 49.0229 36.2146 52.0333 39.2687C56.9333 44.2416 62.6062 50 75 50C88.3333 50 96.6667 43.3354 100 30.0041C95 36.6687 89.1667 39.1687 82.5 37.5041C78.6979 36.5541 75.9792 33.7937 72.9688 30.7396C68.0667 25.7646 62.3917 20.0083 50 20.0083ZM25 50C11.6667 50 3.33333 56.6645 0 69.9958C5 63.3312 10.8333 60.8312 17.5 62.4979C21.3021 63.45 24.0208 66.2083 27.0312 69.2604C31.9333 74.2354 37.6083 79.9937 50 79.9937C63.3333 79.9937 71.6667 73.3291 75 59.9979C70 66.6625 64.1667 69.1625 57.5 67.4958C53.6958 66.5458 50.9771 63.7854 47.9667 60.7333C43.0667 55.7583 37.3937 50 25 50Z" fill="#B988E3"/>
</g>
<defs>
<clipPath id="clip0_90_2">
<rect width="100" height="100" fill="white"/>
</clipPath>
</defs>
</svg>
