<svg width="80" height="80" viewBox="0 0 80 80" fill="none" xmlns="http://www.w3.org/2000/svg">
<path d="M74.8688 35.3437L44.6563 5.1312C43.375 3.8437 41.6875 3.19995 40 3.19995C38.3125 3.19995 36.625 3.8437 35.3438 5.1312L29.3688 11.1062L36.7625 18.5C39.2188 17.0562 42.4188 17.3687 44.525 19.475C46.6313 21.5812 46.9375 24.7812 45.4938 27.2312L52.7625 34.5C55.2188 33.0562 58.4188 33.3687 60.525 35.475C63.025 37.975 63.025 42.025 60.525 44.525C58.025 47.025 53.975 47.025 51.475 44.525C49.3688 42.4187 49.0563 39.2187 50.5 36.7625L43.2313 29.4937C42.7125 29.8 42.1688 30.025 41.6 30.1687V49.825C44.3563 50.5375 46.4 53.0187 46.4 56C46.4 59.5375 43.5375 62.4 40 62.4C36.4625 62.4 33.6 59.5375 33.6 56C33.6 53.0187 35.6438 50.5375 38.4 49.825V30.1687C37.3313 29.8937 36.3125 29.3625 35.475 28.525C33.3688 26.4187 33.0625 23.2187 34.5063 20.7687L27.1063 13.3687L5.13126 35.3437C2.55626 37.9125 2.55626 42.0875 5.13126 44.6562L35.3438 74.8687C36.625 76.1562 38.3125 76.7999 40 76.7999C41.6875 76.7999 43.375 76.1562 44.6563 74.8687L74.8688 44.6562C77.4438 42.0875 77.4438 37.9125 74.8688 35.3437Z" fill="#B988E3"/>
</svg>
