<svg width="100" height="101" viewBox="0 0 100 101" fill="none" xmlns="http://www.w3.org/2000/svg">
<g clip-path="url(#clip0_9_119)">
<path d="M2.37724 1.13892e-06C2.04798 -0.000319037 1.72226 0.0668706 1.42075 0.197303C1.11923 0.327736 0.848521 0.518562 0.625799 0.757665C0.403077 0.996767 0.233211 1.27892 0.126988 1.58621C0.0207642 1.8935 -0.0194957 2.21921 0.00876394 2.54267L4.61894 55.6155C4.66004 56.0854 4.84409 56.532 5.14698 56.8971C5.44986 57.2621 5.85748 57.5284 6.31644 57.6612L27.8337 63.905C28.2707 64.0316 28.7355 64.0316 29.1725 63.905L50.6866 57.6612C51.145 57.5279 51.552 57.2613 51.8543 56.8964C52.1566 56.5314 52.3402 56.085 52.3811 55.6155L56.9912 2.54267C57.0195 2.21947 56.9793 1.89402 56.8733 1.58693C56.7672 1.27985 56.5976 0.997845 56.3752 0.758789C56.1529 0.519733 55.8825 0.328844 55.5814 0.198224C55.2802 0.0676045 54.9548 0.000103481 54.6259 1.13892e-06H2.37724ZM4.96215 4.6829H52.0409L47.7894 53.6216L28.5046 59.2191L9.21365 53.6216L4.96215 4.6829ZM15.8924 14.0487C15.5777 14.0443 15.2653 14.1016 14.9733 14.2173C14.6813 14.333 14.4155 14.5048 14.1914 14.7226C13.9673 14.9405 13.7894 15.2001 13.6679 15.4864C13.5464 15.7726 13.4839 16.0798 13.4839 16.3901C13.4839 16.7004 13.5464 17.0076 13.6679 17.2939C13.7894 17.5802 13.9673 17.8398 14.1914 18.0576C14.4155 18.2755 14.6813 18.4472 14.9733 18.5629C15.2653 18.6786 15.5777 18.736 15.8924 18.7316H38.5258L37.8456 26.5364H17.1106C16.7959 26.532 16.4835 26.5893 16.1915 26.705C15.8995 26.8207 15.6337 26.9925 15.4096 27.2104C15.1856 27.4282 15.0076 27.6878 14.8861 27.9741C14.7647 28.2603 14.7021 28.5675 14.7021 28.8778C14.7021 29.1882 14.7647 29.4954 14.8861 29.7816C15.0076 30.0679 15.1856 30.3275 15.4096 30.5453C15.6337 30.7632 15.8995 30.935 16.1915 31.0507C16.4835 31.1664 16.7959 31.2237 17.1106 31.2193H37.4374L36.5624 41.2711L28.4923 43.6095L20.4376 41.2711L20.0233 36.4845C19.9968 36.178 19.9093 35.8796 19.7658 35.6064C19.6223 35.3332 19.4256 35.0906 19.187 34.8923C18.9484 34.6941 18.6725 34.5442 18.3751 34.4511C18.0777 34.358 17.7647 34.3236 17.4538 34.3498C17.1429 34.376 16.8403 34.4624 16.5633 34.6039C16.2863 34.7455 16.0402 34.9395 15.8392 35.1748C15.6382 35.4101 15.4862 35.6822 15.3919 35.9754C15.2976 36.2687 15.2628 36.5774 15.2894 36.8839L15.8429 43.2649C15.8838 43.7344 16.0674 44.1809 16.3697 44.5458C16.672 44.9108 17.0789 45.1774 17.5373 45.3107L27.8213 48.2954C28.2593 48.4226 28.7252 48.4226 29.1632 48.2954L39.4596 45.3107C39.918 45.1774 40.3249 44.9108 40.6272 44.5458C40.9295 44.1809 41.1131 43.7344 41.154 43.2649L43.4792 16.5914C43.5074 16.2682 43.4673 15.9427 43.3612 15.6356C43.2552 15.3285 43.0856 15.0465 42.8632 14.8075C42.6408 14.5684 42.3705 14.3775 42.0693 14.2469C41.7682 14.1163 41.4428 14.0488 41.1138 14.0487H15.8924Z" fill="#B988E3"/>
<path d="M45.516 33C45.1688 32.9998 44.8254 33.0726 44.5073 33.2136C44.1892 33.3547 43.9034 33.561 43.6678 33.8195C43.4322 34.0781 43.2519 34.3833 43.1384 34.716C43.0248 35.0487 42.9804 35.4016 43.0079 35.7525L47.3037 90.7668C47.3414 91.2566 47.5178 91.7249 47.8117 92.1154C48.1056 92.5059 48.5045 92.8021 48.9604 92.9682L70.652 100.851C71.2003 101.05 71.7997 101.05 72.348 100.851L94.0396 92.9682C94.4955 92.8021 94.8944 92.5059 95.1883 92.1154C95.4822 91.7249 95.6586 91.2566 95.6963 90.7668L99.9921 35.7525C100.02 35.4016 99.9752 35.0487 99.8616 34.716C99.7481 34.3833 99.5678 34.0781 99.3322 33.8195C99.0966 33.561 98.8108 33.3547 98.4927 33.2136C98.1746 33.0726 97.8312 32.9998 97.484 33H45.516ZM48.2401 38.1H94.7599L90.8112 88.7215L71.5 95.7407L52.1888 88.7215L48.2401 38.1ZM56.3798 46.6L57.8892 67H80.3665L79.5807 77.8475L71.5164 80.4639L63.7205 77.8641L63.3014 72.1H58.2559L58.9598 81.636L71.4836 85.8362L84.3414 81.6526L85.7821 61.9H62.5483L61.8116 51.7H86.1848L86.5711 46.6H56.3798Z" fill="#B988E3"/>
</g>
<defs>
<clipPath id="clip0_9_119">
<rect width="100" height="101" fill="white"/>
</clipPath>
</defs>
</svg>
