<svg width="100" height="100" viewBox="0 0 100 100" fill="none" xmlns="http://www.w3.org/2000/svg">
<path d="M12.475 84.3875V15.6125C12.475 13.8875 13.875 12.5 15.6041 12.5H84.3666C86.0875 12.5 87.4875 13.8875 87.4875 15.6125V84.3917C87.4875 86.1125 86.0875 87.5042 84.3666 87.5042H15.6041C13.875 87.5 12.475 86.1125 12.475 84.3875ZM83.3125 72.8333C83.3125 66.5542 79.7458 63.725 73.425 61L71.5625 60.2208C68.3791 58.7792 66.9958 57.8875 66.9958 55.6083C66.9958 53.7792 68.375 52.3875 70.55 52.3875C72.6875 52.3875 74.0625 53.3333 75.3333 55.6083L81.1208 51.8333C78.6791 47.5 75.2791 45.8333 70.5541 45.8333C63.9166 45.8333 59.6708 50.1125 59.6708 55.7792C59.6708 61.8917 63.2375 64.8333 68.6 67.1125L70.4541 67.9458C73.8416 69.4458 75.5208 70.3375 75.5208 72.9458C75.5208 74.7792 73.3041 75.7792 70.8208 75.7792C67.1541 75.7792 65.4208 74.1125 63.8333 71.5L57.9875 75.4458C60.1708 79.775 64.0875 83.3333 70.9916 83.3333C78.0541 83.3333 83.3125 79.6125 83.3125 72.8333ZM54.1458 71.5V45.8333H45.8125V70.2792C45.8125 74.1708 44.5166 75.2792 41.9791 75.2792C39.325 75.2792 37.4791 73.6667 36.2666 71.5042L29.9791 75.2792C31.8 79.1708 36.2625 83.2833 42.4458 83.2833C49.2958 83.2792 54.1458 79.5 54.1458 71.5Z" fill="#B988E3"/>
</svg>
