<svg width="100" height="100" viewBox="0 0 100 100" xmlns="http://www.w3.org/2000/svg">
<path d="M50 6.25C42.2321 6.25 38.0006 8.22303 34.9853 9.52962H34.9813C32.2681 10.7128 30.6349 13.1641 29.9276 15.4785C29.2202 17.7929 29.1667 20.1055 29.1667 22.168V29.1667H22.168C20.1055 29.1667 17.7929 29.2202 15.4785 29.9276C13.1641 30.6349 10.7128 32.268 9.52962 34.9813V34.9853C8.22303 38.0005 6.25 42.2321 6.25 50C6.25 57.7679 8.22303 61.9994 9.52962 65.0146V65.0187C10.7128 67.732 13.1641 69.3651 15.4785 70.0724C17.7929 70.7797 20.1055 70.8333 22.168 70.8333H29.1667V77.832C29.1667 79.8945 29.2202 82.2071 29.9276 84.5215C30.6349 86.8359 32.268 89.2872 34.9813 90.4704H34.9853C38.0005 91.777 42.2321 93.75 50 93.75C57.7679 93.75 61.9994 91.777 65.0146 90.4704H65.0187C67.732 89.2872 69.3651 86.8359 70.0724 84.5215C70.7797 82.2071 70.8333 79.8945 70.8333 77.832V70.8333H77.832C79.8945 70.8333 82.2071 70.7798 84.5215 70.0724C86.8359 69.3651 89.2872 67.732 90.4704 65.0187V65.0146C91.777 61.9995 93.75 57.7679 93.75 50C93.75 42.2321 91.777 38.0006 90.4704 34.9853V34.9813C89.2872 32.2681 86.8359 30.6349 84.5215 29.9276C82.2071 29.2202 79.8945 29.1667 77.832 29.1667H70.8333V22.168C70.8333 20.1055 70.7798 17.7929 70.0724 15.4785C69.3651 13.1641 67.732 10.7128 65.0187 9.52962H65.0146C61.9995 8.22303 57.7679 6.25 50 6.25ZM50 12.5C56.8096 12.5 59.2896 13.8583 62.5203 15.2588C63.3904 15.6382 63.7295 16.1095 64.0951 17.3055C64.4606 18.5015 64.5833 20.2929 64.5833 22.168V31.779C64.5282 32.1145 64.5282 32.4567 64.5833 32.7922V39.5833C64.5833 43.646 61.3543 46.875 57.2917 46.875H42.7083C35.2668 46.875 29.1667 52.9751 29.1667 60.4167V64.5833H22.168C20.2929 64.5833 18.5015 64.4606 17.3055 64.0951C16.1095 63.7295 15.6382 63.3904 15.2588 62.5203C13.8583 59.2896 12.5 56.8096 12.5 50C12.5 43.1904 13.8583 40.7104 15.2588 37.4797C15.6382 36.6096 16.1095 36.2705 17.3055 35.9049C18.5015 35.5394 20.2929 35.4167 22.168 35.4167H48.9583C49.3724 35.4225 49.7836 35.346 50.1678 35.1916C50.5521 35.0372 50.9019 34.8079 51.1968 34.5172C51.4917 34.2264 51.7259 33.8799 51.8857 33.4979C52.0455 33.1158 52.1278 32.7058 52.1278 32.2917C52.1278 31.8775 52.0455 31.4675 51.8857 31.0855C51.7259 30.7034 51.4917 30.3569 51.1968 30.0662C50.9019 29.7754 50.5521 29.5461 50.1678 29.3917C49.7836 29.2373 49.3724 29.1608 48.9583 29.1667H35.4167V22.168C35.4167 20.2929 35.5394 18.5015 35.9049 17.3055C36.2705 16.1095 36.6096 15.6382 37.4797 15.2588C40.7104 13.8583 43.1904 12.5 50 12.5ZM42.7083 18.75C41.8795 18.75 41.0847 19.0792 40.4986 19.6653C39.9126 20.2513 39.5833 21.0462 39.5833 21.875C39.5833 22.7038 39.9126 23.4987 40.4986 24.0847C41.0847 24.6708 41.8795 25 42.7083 25C43.5371 25 44.332 24.6708 44.918 24.0847C45.5041 23.4987 45.8333 22.7038 45.8333 21.875C45.8333 21.0462 45.5041 20.2513 44.918 19.6653C44.332 19.0792 43.5371 18.75 42.7083 18.75ZM70.8333 35.4167H77.832C79.7071 35.4167 81.4985 35.5394 82.6945 35.9049C83.8905 36.2705 84.3618 36.6096 84.7412 37.4797C86.1417 40.7104 87.5 43.1904 87.5 50C87.5 56.8096 86.1417 59.2896 84.7412 62.5203C84.3618 63.3904 83.8905 63.7295 82.6945 64.0951C81.4985 64.4606 79.7071 64.5833 77.832 64.5833H51.0417C50.6276 64.5775 50.2164 64.654 49.8322 64.8084C49.4479 64.9628 49.0981 65.1921 48.8032 65.4828C48.5083 65.7736 48.2741 66.1201 48.1143 66.5021C47.9545 66.8842 47.8722 67.2942 47.8722 67.7083C47.8722 68.1225 47.9545 68.5325 48.1143 68.9145C48.2741 69.2966 48.5083 69.6431 48.8032 69.9338C49.0981 70.2246 49.4479 70.4538 49.8322 70.6083C50.2164 70.7627 50.6276 70.8392 51.0417 70.8333H64.5833V77.832C64.5833 79.7071 64.4606 81.4985 64.0951 82.6945C63.7295 83.8905 63.3904 84.3618 62.5203 84.7412C59.2896 86.1417 56.8096 87.5 50 87.5C43.1904 87.5 40.7104 86.1417 37.4797 84.7412C36.6096 84.3618 36.2705 83.8905 35.9049 82.6945C35.5394 81.4985 35.4167 79.7071 35.4167 77.832V60.4167C35.4167 56.354 38.6457 53.125 42.7083 53.125H57.2917C64.7332 53.125 70.8333 47.0249 70.8333 39.5833V35.4167ZM57.2917 75C56.4629 75 55.668 75.3292 55.082 75.9153C54.4959 76.5013 54.1667 77.2962 54.1667 78.125C54.1667 78.9538 54.4959 79.7487 55.082 80.3347C55.668 80.9208 56.4629 81.25 57.2917 81.25C58.1205 81.25 58.9153 80.9208 59.5014 80.3347C60.0874 79.7487 60.4167 78.9538 60.4167 78.125C60.4167 77.2962 60.0874 76.5013 59.5014 75.9153C58.9153 75.3292 58.1205 75 57.2917 75Z" fill="#B988E3"/>
</svg>
