<svg width="80" height="80" viewBox="0 0 80 80" fill="none" xmlns="http://www.w3.org/2000/svg">
<path d="M28.4792 11.1511C26.8498 11.1511 25.3387 11.5159 24 12.2865C19.8163 14.702 18.2239 20.5882 19.0677 27.9167C12.3005 30.8503 8 35.1699 8 40.0001C8 44.8303 12.3005 49.1499 19.0677 52.0834C18.2243 59.4117 19.8163 65.2982 24 67.7136C25.336 68.4843 26.8472 68.849 28.4792 68.849C31.9528 68.849 35.9676 67.1056 40 64.1147C44.0328 67.1056 48.0524 68.849 51.526 68.849C53.1554 68.849 54.6665 68.4843 56.0052 67.7136C60.1888 65.2982 61.7813 59.4119 60.9375 52.0834C67.7021 49.1499 72 44.8293 72 40.0001C72 35.1699 67.6995 30.8503 60.9323 27.9167C61.7757 20.5885 60.1837 14.702 56 12.2865C54.664 11.5132 53.1528 11.1511 51.5208 11.1511C48.0472 11.1511 44.0324 12.8945 40 15.8855C35.9674 12.8945 31.9516 11.1511 28.4792 11.1511ZM28.4792 15.8178C30.5635 15.8178 33.3199 16.9261 36.3125 18.9792C34.553 20.6397 32.8297 22.5279 31.1719 24.6303C28.4829 25.0159 25.9476 25.5779 23.599 26.2813C23.5863 26.1185 23.5565 25.9475 23.5469 25.7865C23.2615 21.0399 24.304 17.5015 26.3333 16.3282C26.9333 15.9815 27.6338 15.8178 28.4792 15.8178ZM51.5208 15.8178C52.3635 15.8178 53.0667 15.9815 53.6667 16.3282C55.696 17.4989 56.7385 21.0399 56.4531 25.7865C56.4435 25.9475 56.4137 26.1185 56.401 26.2813C54.0509 25.5775 51.5138 25.0159 48.8229 24.6303C47.1651 22.5282 45.447 20.6395 43.6875 18.9792C46.6799 16.9264 49.4376 15.8178 51.5208 15.8178ZM40 21.9428C40.7229 22.6007 41.4407 23.2962 42.1667 24.0574C41.4473 24.0332 40.7317 24.0001 40 24.0001C39.2701 24.0001 38.5563 24.0333 37.8385 24.0574C38.5639 23.297 39.2778 22.6001 40 21.9428ZM40 28.6667C42.2098 28.6667 44.3043 28.7903 46.2917 29.0053C47.5036 30.6526 48.6981 32.3942 49.8177 34.3334C50.8909 36.1922 51.8398 38.0947 52.6771 40.0001C51.8397 41.9066 50.8915 43.8121 49.8177 45.672C48.7015 47.6055 47.5101 49.3359 46.3021 50.9792C44.2446 51.2044 42.1339 51.3334 40 51.3334C37.7902 51.3334 35.6957 51.2099 33.7083 50.9949C32.4964 49.3476 31.3019 47.6111 30.1823 45.672C29.1085 43.8121 28.1605 41.9066 27.3229 40.0001C28.1599 38.0947 29.1091 36.1922 30.1823 34.3334C31.2989 32.3998 32.4896 30.6642 33.6979 29.0209C35.7554 28.7958 37.8661 28.6667 40 28.6667ZM52.6562 30.1095C53.7142 30.3649 54.7313 30.6406 55.6875 30.948C55.4709 31.9268 55.206 32.9244 54.9062 33.9324C54.5631 33.2885 54.2303 32.6425 53.8594 32.0001C53.4777 31.3393 53.054 30.7456 52.6562 30.1095ZM27.3385 30.1147C26.9421 30.7488 26.5211 31.3414 26.1406 32.0001C25.7698 32.6426 25.4368 33.2884 25.0938 33.9324C24.7934 32.9223 24.5241 31.9235 24.3073 30.9428C25.281 30.6351 26.2955 30.3627 27.3385 30.1147ZM19.9167 32.6563C20.4785 35.0287 21.2579 37.4879 22.2604 39.9949C21.2601 42.4959 20.4839 44.9506 19.9219 47.3178C15.278 45.0753 12.6667 42.2837 12.6667 40.0001C12.6667 37.6561 15.205 34.9848 19.4583 32.8595C19.6035 32.7868 19.7683 32.7273 19.9167 32.6563ZM60.0781 32.6824C64.722 34.9249 67.3333 37.7164 67.3333 40.0001C67.3333 42.3441 64.795 45.0154 60.5417 47.1407C60.3965 47.2133 60.2317 47.2729 60.0833 47.3438C59.5211 44.9701 58.7481 42.5086 57.7448 40.0001C58.7439 37.5012 59.5165 35.0476 60.0781 32.6824ZM40 34.6667C37.0533 34.6667 34.6667 37.0534 34.6667 40.0001C34.6667 42.9467 37.0533 45.3334 40 45.3334C42.9467 45.3334 45.3333 42.9467 45.3333 40.0001C45.3333 37.0534 42.9467 34.6667 40 34.6667ZM25.0938 46.0678C25.437 46.7119 25.7747 47.3574 26.1458 48.0001C26.5271 48.6604 26.9464 49.255 27.3438 49.8907C26.2858 49.6353 25.2687 49.3595 24.3125 49.0522C24.5293 48.0727 24.7938 47.0764 25.0938 46.0678ZM54.9062 46.073C55.2063 47.0821 55.476 48.0775 55.6927 49.0574C54.719 49.365 53.7045 49.6375 52.6615 49.8855C53.0579 49.2513 53.4789 48.6588 53.8594 48.0001C54.2295 47.3589 54.5639 46.7157 54.9062 46.073ZM23.599 53.7188C25.9491 54.4227 28.4862 54.9843 31.1771 55.3699C32.8354 57.473 34.5522 59.3652 36.3125 61.0261C33.3201 63.0787 30.5634 64.1876 28.4792 64.1876C27.6365 64.1876 26.9333 64.0186 26.3333 63.672C24.304 62.5013 23.2615 58.9655 23.5469 54.2188C23.5566 54.0561 23.5861 53.8834 23.599 53.7188ZM56.401 53.7188C56.4138 53.8834 56.4434 54.0561 56.4531 54.2188C56.7385 58.9655 55.696 62.4986 53.6667 63.672C53.0667 64.0186 52.3662 64.1876 51.5208 64.1876C49.4366 64.1876 46.6799 63.079 43.6875 61.0261C45.4479 59.365 47.1694 57.4733 48.8281 55.3699C51.5171 54.9843 54.0524 54.4222 56.401 53.7188ZM37.8333 55.9428C38.5528 55.967 39.2683 56.0001 40 56.0001C40.7317 56.0001 41.4473 55.967 42.1667 55.9428C41.4407 56.704 40.7229 57.3995 40 58.0574C39.2771 57.3994 38.5593 56.704 37.8333 55.9428Z" fill="#B988E3"/>
</svg>
