<svg xmlns="http://www.w3.org/2000/svg" viewBox="0 0 32 32" width="25" height="25" fill="#25D366">
  <path d="M16 .281c-8.844 0-16 7.156-16 16 0 2.844.75 5.531 2.062 7.875L0 32l8.062-2.094c2.281 1.219 4.813 1.906 7.438 1.906 8.844 0 16-7.156 16-16s-7.156-16-16-16zm0 2c7.719 0 14 6.281 14 14s-6.281 14-14 14c-2.438 0-4.781-.625-6.844-1.781l-.5-.281-4.5 1.156 1.188-4.438-.313-.531c-1.125-1.875-1.781-4.063-1.781-6.406 0-7.719 6.281-14 14-14zm-5.219 7.844c-.125 0-.281 0-.438.031-.5.094-.844.344-1.156.812-.312.469-1.031 2.219-1.031 3.156s.656 2.219.75 2.375c.094.156 1.281 2 3.094 3.375 1.844 1.406 3.344 1.812 3.969 2 .625.188 1.406.188 1.906.125.594-.062 1.844-.75 2.094-1.469.25-.719.25-1.344.188-1.469-.063-.125-.219-.188-.438-.313-.219-.125-1.312-.656-1.531-.719-.219-.062-.375-.094-.531.156s-.625.719-.75.875c-.125.156-.281.188-.5.063-.219-.125-.938-.344-1.781-1-.656-.438-1.156-1-1.312-1.156-.156-.188-.031-.313.094-.438.125-.125.25-.281.375-.406.125-.125.156-.219.25-.375.094-.156.062-.281 0-.406-.063-.125-.531-1.312-.75-1.844-.188-.5-.375-.438-.5-.438-.125 0-.25-.031-.375-.031z"/>
</svg>
